<svg data-v-423bf9ae="" xmlns="http://www.w3.org/2000/svg" viewBox="0 0 201.70478505598277 60" class="font"><!----><!----><defs data-v-423bf9ae=""><linearGradient data-v-423bf9ae="" gradientTransform="rotate(25)" id="ea04caa9-63bb-4c6d-8d02-5c5678db7e7e" x1="0%" y1="0%" x2="100%" y2="0%"><stop data-v-423bf9ae="" offset="0%" style="stop-color: rgb(233, 13, 202); stop-opacity: 1;"></stop><stop data-v-423bf9ae="" offset="100%" style="stop-color: rgb(21, 54, 241); stop-opacity: 1;"></stop></linearGradient></defs><g data-v-423bf9ae="" id="73e2256d-8e62-413e-85b1-853368676d0f" fill="url(#ea04caa9-63bb-4c6d-8d02-5c5678db7e7e)" transform="matrix(6.23700631120257,0,0,6.23700631120257,-2.8066540279616845,-12.286903326766982)"><path d="M1.75 4.65C1.75 4.03 2.11 3.08 4.21 3.08C5.91 3.08 6.69 3.82 6.80 4.75L7.88 4.75C7.80 3.36 6.68 2.10 4.21 2.10C1.89 2.10 0.73 3.15 0.73 4.66C0.73 7.84 7.07 6.69 7.07 8.96C7.07 10.05 6.09 10.60 4.52 10.60C2.91 10.60 1.61 10.05 1.54 8.71L0.45 8.71C0.59 10.37 1.71 11.59 4.45 11.59C6.73 11.59 8.12 10.64 8.12 8.92C8.12 5.68 1.75 6.80 1.75 4.65ZM11.33 11.48L11.33 5.40L12.94 5.40L12.94 4.48L11.33 4.48L11.33 1.97L10.28 1.97L10.28 4.48L8.85 4.48L8.85 5.40L10.28 5.40L10.28 11.48ZM16.98 4.37C14.84 4.37 13.51 5.98 13.51 7.98C13.51 9.98 14.84 11.59 16.98 11.59C19.12 11.59 20.45 9.98 20.45 7.98C20.45 5.98 19.12 4.37 16.98 4.37ZM16.98 10.64C15.43 10.64 14.56 9.42 14.56 7.98C14.56 6.54 15.43 5.32 16.98 5.32C18.54 5.32 19.40 6.54 19.40 7.98C19.40 9.42 18.54 10.64 16.98 10.64ZM25.47 4.37C23.73 4.37 23.03 5.73 22.89 6.20L22.89 4.48L21.84 4.48L21.84 11.48L22.89 11.48L22.89 8.40C22.89 6.86 23.84 5.42 25.41 5.42L25.54 5.42L25.54 4.37ZM31.08 6.54C31.71 6.34 32.48 5.49 32.48 4.56C32.48 3.12 31.37 2.10 29.55 2.10C27.75 2.10 26.71 3.30 26.59 4.44L27.61 4.44C27.73 3.72 28.45 3.12 29.58 3.12C30.80 3.12 31.43 3.72 31.43 4.61C31.43 5.50 30.58 6.12 29.61 6.12L28.67 6.12L28.67 7.08L29.74 7.08C30.91 7.08 31.74 7.91 31.74 8.85C31.74 9.80 30.95 10.57 29.64 10.57C28.52 10.57 27.54 9.90 27.40 9.03L26.33 9.03C26.47 10.47 27.90 11.59 29.64 11.59C31.39 11.59 32.79 10.47 32.79 8.82C32.79 7.83 32.16 6.94 31.08 6.54Z"></path></g><!----><!----></svg>