<svg data-v-423bf9ae="" xmlns="http://www.w3.org/2000/svg" viewBox="0 0 234.68543194578456 60" class="font"><!----><!----><defs data-v-423bf9ae=""><linearGradient data-v-423bf9ae="" gradientTransform="rotate(25)" id="04786386-ea9a-45c8-86b4-ee9b9ac6b1ae" x1="0%" y1="0%" x2="100%" y2="0%"><stop data-v-423bf9ae="" offset="0%" style="stop-color: rgb(65, 15, 248); stop-opacity: 1;"></stop><stop data-v-423bf9ae="" offset="100%" style="stop-color: rgb(65, 15, 248); stop-opacity: 1;"></stop></linearGradient></defs><g data-v-423bf9ae="" id="4d31c3e2-544a-445d-abd8-99a47696b9d6" fill="url(#04786386-ea9a-45c8-86b4-ee9b9ac6b1ae)" transform="matrix(4.966887448588033,0,0,4.966887448588033,-2.7814581098093782,-18.625828885879443)"><path d="M8.76 12.28C8.76 12.38 8.75 13.22 8.22 14.07C7.73 14.88 6.72 15.83 4.66 15.83C3.04 15.83 1.76 15.15 1.08 13.93C0.76 13.34 0.63 12.77 0.59 12.40C0.59 12.38 0.57 12.35 0.57 12.32C0.57 12.18 0.69 12.05 0.83 12.04L2.55 12.04C2.66 12.05 2.74 12.12 2.77 12.24L2.77 12.25C2.77 12.26 2.79 12.28 2.79 12.29C2.81 12.46 2.88 12.70 3.02 12.91C3.32 13.40 3.86 13.65 4.66 13.65C5.52 13.65 6.06 13.41 6.36 12.94C6.55 12.61 6.58 12.26 6.58 12.26C6.58 11.87 6.48 11.41 5.75 11.12C5.22 10.89 4.66 10.88 4.66 10.88C4.56 10.88 3.67 10.86 2.74 10.50C1.33 9.93 0.56 8.81 0.56 7.34C0.56 7.20 0.59 5.89 1.61 4.87C2.34 4.13 3.37 3.75 4.66 3.75C5.49 3.75 6.68 3.93 7.59 4.86C8.47 5.75 8.69 6.89 8.75 7.45L8.75 7.48C8.75 7.64 8.64 7.77 8.48 7.77L6.79 7.77C6.68 7.76 6.58 7.66 6.55 7.55L6.55 7.50C6.51 7.31 6.44 7.03 6.30 6.75C6.10 6.40 5.73 5.94 4.66 5.94C3.98 5.94 3.47 6.09 3.15 6.41C2.77 6.79 2.74 7.34 2.74 7.34C2.74 7.73 2.84 8.18 3.57 8.47C4.10 8.68 4.66 8.69 4.66 8.69C4.76 8.69 5.66 8.71 6.58 9.09C7.99 9.67 8.76 10.81 8.76 12.28ZM17.60 5.68C17.60 5.84 17.44 5.96 17.26 5.96L14.59 5.96L14.59 15.47C14.59 15.65 14.46 15.81 14.32 15.81L12.67 15.81C12.53 15.81 12.40 15.65 12.40 15.47L12.40 5.96L9.67 5.96C9.52 5.96 9.39 5.84 9.39 5.68L9.39 4.05C9.39 3.89 9.52 3.78 9.67 3.78L17.26 3.78C17.44 3.78 17.60 3.89 17.60 4.05ZM23.20 15.82C19.88 15.82 17.18 13.12 17.18 9.80C17.18 6.48 19.88 3.78 23.20 3.78C26.52 3.78 29.22 6.48 29.22 9.80C29.22 13.12 26.52 15.82 23.20 15.82ZM23.20 5.96C21.08 5.96 19.36 7.69 19.36 9.80C19.36 11.91 21.08 13.62 23.20 13.62C25.31 13.62 27.02 11.91 27.02 9.80C27.02 7.69 25.31 5.96 23.20 5.96ZM38.82 15.37L36.60 11.42L36.29 10.89L36.22 10.77C38.25 10.32 39.30 8.82 39.30 7.35C39.30 6.38 38.85 5.46 38.08 4.82C37.30 4.14 36.19 3.79 34.92 3.79L30.83 3.79C30.67 3.79 30.55 3.92 30.55 4.06L30.55 5.17L30.69 5.42L30.69 5.43L32.55 8.71L30.55 8.71L30.55 15.54C30.55 15.69 30.67 15.82 30.83 15.82L32.47 15.82C32.61 15.82 32.73 15.69 32.73 15.54L32.73 10.89L33.78 10.89L34.08 11.42L36.47 15.65L36.50 15.69C36.54 15.76 36.62 15.82 36.72 15.82L38.60 15.82C38.75 15.82 38.86 15.69 38.86 15.53C38.86 15.48 38.86 15.44 38.84 15.40ZM34.76 8.19L33.52 5.98L34.92 5.98C36.43 5.98 37.10 6.69 37.10 7.35C37.10 7.91 36.60 8.53 35.46 8.68C35.34 8.69 35.20 8.71 35.06 8.71ZM47.01 10.02C47.50 10.63 47.81 11.41 47.81 12.25C47.81 12.81 47.67 13.33 47.45 13.80C46.87 14.99 45.65 15.81 44.25 15.81C42.39 15.81 40.87 14.38 40.71 12.57C40.71 12.56 40.70 12.54 40.70 12.54C40.70 12.53 40.70 12.53 40.71 12.53L40.71 12.49C40.73 12.36 40.84 12.25 40.98 12.25L42.64 12.25C42.77 12.25 42.87 12.35 42.90 12.49L42.90 12.50C43.02 13.13 43.58 13.62 44.25 13.62C45.00 13.62 45.61 13.01 45.61 12.25C45.61 11.94 45.51 11.65 45.33 11.41C45.29 11.37 45.25 11.33 45.21 11.27L44.86 10.88L43.68 10.88C43.54 10.88 43.43 10.75 43.43 10.60L43.43 8.99L43.43 8.93C43.46 8.81 43.55 8.69 43.69 8.69L44.86 8.69L45.21 8.30C45.25 8.26 45.29 8.22 45.33 8.16C45.51 7.94 45.61 7.64 45.61 7.32C45.61 6.58 45.00 5.96 44.25 5.96C43.58 5.96 43.02 6.45 42.90 7.08C42.88 7.22 42.77 7.32 42.64 7.32L40.96 7.32C40.82 7.32 40.70 7.20 40.70 7.04C40.71 7.01 40.71 7.01 40.71 7C40.88 5.19 42.39 3.78 44.25 3.78C45.65 3.78 46.87 4.59 47.45 5.78C47.67 6.24 47.81 6.78 47.81 7.32C47.81 8.18 47.50 8.95 47.01 9.56C46.96 9.65 46.89 9.72 46.82 9.79C46.89 9.87 46.96 9.94 47.01 10.02Z"></path></g><!----><!----></svg>